<?xml version="1.0" standalone="no"?>
<!DOCTYPE svg PUBLIC "-//W3C//DTD SVG 20010904//EN"
 "http://www.w3.org/TR/2001/REC-SVG-20010904/DTD/svg10.dtd">
<svg version="1.0" xmlns="http://www.w3.org/2000/svg"
 width="3000.000000pt" height="2445.000000pt" viewBox="0 0 3000.000000 2445.000000"
 preserveAspectRatio="xMidYMid meet">
<metadata>
Created by potrace 1.16, written by Peter Selinger 2001-2019
</metadata>
<g transform="translate(0.000000,2445.000000) scale(0.100000,-0.100000)"
fill="#000000" stroke="none">
<path d="M0 12230 l0 -12220 15000 0 15000 0 0 12220 0 12220 -15000 0 -15000
0 0 -12220z m7807 7662 c24 -12 49 -35 58 -52 30 -57 11 -145 -36 -171 -21
-11 -21 -11 8 -29 50 -30 73 -68 73 -117 0 -57 -23 -95 -74 -125 -38 -21 -54
-23 -208 -26 l-168 -4 0 277 0 278 153 -5 c130 -4 158 -8 194 -26z m693 6 c19
-9 48 -30 65 -47 25 -28 30 -41 33 -99 2 -54 -1 -73 -17 -100 -18 -28 -65 -65
-95 -75 -6 -2 22 -48 61 -103 l72 -99 -46 -3 c-25 -2 -51 -1 -58 2 -7 2 -41
45 -76 95 l-62 91 -58 0 -58 0 -3 -92 -3 -93 -47 -3 -48 -3 0 277 0 277 153
-5 c105 -4 163 -10 187 -20z m460 -253 l0 -275 -45 0 -45 0 0 275 0 275 45 0
45 0 0 -275z m387 253 c12 -13 80 -99 152 -192 l131 -168 0 191 0 191 45 0 45
0 0 -275 0 -275 -38 0 c-38 0 -40 2 -188 193 l-149 192 -3 -192 -2 -193 -45 0
-45 0 0 275 0 275 38 0 c27 0 45 -7 59 -22z m1051 -3 c65 -30 73 -48 38 -84
l-28 -29 -41 23 c-57 32 -107 40 -154 25 -144 -46 -179 -253 -58 -346 50 -38
133 -45 199 -16 46 21 46 21 46 71 l0 51 -70 0 -70 0 0 40 0 40 115 0 116 0
-3 -117 -3 -118 -65 -33 c-158 -79 -330 -38 -405 99 -27 48 -30 63 -30 139 0
76 3 91 30 139 55 99 128 139 255 140 60 1 86 -4 128 -24z m452 -250 l0 -275
-45 0 -45 0 0 275 0 275 45 0 45 0 0 -275z m376 267 c6 -4 74 -90 152 -191
l142 -183 0 191 0 191 45 0 45 0 0 -275 0 -275 -38 0 c-37 0 -40 3 -187 193
l-150 192 -3 -192 -2 -193 -45 0 -45 0 0 275 0 275 38 0 c20 0 42 -4 48 -8z
m1054 -13 c24 -11 53 -27 63 -36 17 -16 16 -18 -14 -49 l-32 -33 -27 19 c-129
92 -301 -1 -300 -162 1 -142 141 -229 274 -170 46 21 46 21 46 71 l0 51 -70 0
-70 0 0 40 0 40 115 0 116 0 -3 -117 -3 -118 -69 -35 c-61 -31 -77 -35 -150
-35 -96 0 -152 22 -209 80 -136 140 -80 393 100 460 59 21 179 19 233 -6z
m1045 1 c134 -52 154 -238 34 -317 -38 -25 -54 -29 -143 -33 l-101 -5 -3 -87
-3 -88 -44 0 -45 0 0 276 0 277 138 -5 c75 -3 151 -11 167 -18z m755 -25 l0
-45 -155 0 -155 0 0 -70 0 -69 138 -3 137 -3 0 -40 0 -40 -137 -3 -138 -3 0
-69 0 -70 155 0 155 0 0 -45 0 -45 -200 0 -200 0 0 275 0 275 200 0 200 0 0
-45z m648 19 c104 -52 158 -151 150 -273 -6 -82 -33 -136 -94 -190 -87 -77
-209 -90 -320 -36 -164 80 -200 308 -71 444 79 83 229 108 335 55z m722 4
c105 -44 143 -184 75 -273 -41 -54 -77 -69 -190 -75 l-100 -5 -3 -87 -3 -88
-44 0 -45 0 0 276 0 277 138 -5 c88 -4 150 -11 172 -20z m440 -208 l0 -230
145 0 145 0 0 -45 0 -45 -190 0 -190 0 0 275 0 275 45 0 45 0 0 -230z m930
185 l0 -45 -150 0 -150 0 0 -70 0 -70 135 0 135 0 0 -45 0 -45 -135 0 -135 0
0 -70 0 -69 153 -3 152 -3 3 -42 3 -43 -205 0 -206 0 0 275 0 275 200 0 200 0
0 -45z m1038 -2 l3 -42 -88 -3 -88 -3 -3 -227 -2 -228 -45 0 -45 0 0 230 0
230 -85 0 -85 0 0 45 0 45 218 -2 217 -3 3 -42z m588 28 c104 -48 164 -140
164 -255 0 -91 -29 -156 -95 -214 -98 -86 -240 -94 -354 -19 -82 54 -130 177
-110 281 17 94 90 181 175 211 57 21 170 18 220 -4z m837 -14 c26 -15 47 -31
47 -34 0 -3 -12 -21 -26 -40 l-25 -33 -42 24 c-142 81 -286 1 -287 -161 0 -63
13 -99 48 -137 53 -56 142 -72 222 -40 40 16 40 16 40 70 l0 54 -70 0 -70 0 0
40 0 40 115 0 115 0 0 -114 c0 -114 0 -115 -28 -135 -56 -40 -114 -56 -197
-56 -69 1 -87 5 -135 30 -60 33 -114 96 -130 153 -16 59 -12 162 9 208 27 60
79 114 136 141 44 21 62 24 140 21 78 -3 98 -8 138 -31z m737 -12 l0 -45 -150
0 -150 0 0 -70 0 -70 135 0 135 0 0 -45 0 -45 -135 0 -135 0 0 -70 0 -69 153
-3 152 -3 3 -42 3 -43 -205 0 -206 0 0 275 0 275 200 0 200 0 0 -45z m660 0
l0 -45 -85 0 -85 0 0 -230 0 -230 -50 0 -50 0 0 230 0 230 -85 0 -85 0 0 38
c0 21 3 42 7 45 3 4 102 7 220 7 l213 0 0 -45z m340 -70 l0 -115 130 0 130 0
0 116 0 115 48 -3 47 -3 3 -272 2 -273 -50 0 -50 0 0 115 0 115 -130 0 -130 0
0 -116 0 -115 -47 3 -48 3 -3 260 c-1 143 0 265 3 272 2 8 22 13 50 13 l45 0
0 -115z m1038 68 l3 -43 -155 0 -156 0 0 -70 0 -70 135 0 135 0 0 -45 0 -45
-135 0 -135 0 0 -70 0 -70 155 0 155 0 0 -45 0 -45 -200 0 -200 0 0 275 0 275
198 -2 197 -3 3 -42z m612 16 c67 -37 85 -68 85 -147 0 -79 -22 -119 -83 -149
l-39 -19 73 -102 74 -102 -57 0 -58 0 -65 95 -65 94 -62 1 -63 0 0 -95 0 -95
-45 0 -45 0 0 276 0 277 153 -5 c139 -4 158 -7 197 -29z m-6168 -2799 c43 -22
86 -40 96 -40 49 0 125 -74 272 -262 89 -114 111 -161 121 -261 11 -109 1
-144 -64 -230 -84 -112 -191 -203 -279 -237 -40 -15 -140 -57 -223 -92 -136
-59 -257 -99 -358 -118 -56 -11 -46 12 33 78 156 130 188 162 202 201 8 24 57
91 122 167 124 145 166 223 166 308 l0 52 -42 -3 c-24 -2 -95 -15 -158 -29
-117 -26 -227 -74 -349 -151 -29 -19 -90 -52 -135 -73 -62 -30 -105 -61 -186
-136 -58 -53 -175 -159 -260 -235 -159 -141 -240 -227 -240 -252 0 -8 -9 -22
-19 -31 -11 -10 -28 -38 -38 -62 -10 -24 -25 -46 -33 -49 -8 -3 -27 -24 -42
-47 -15 -24 -50 -70 -79 -103 -28 -33 -60 -78 -70 -100 -10 -22 -19 -33 -19
-25 0 9 -6 4 -13 -10 -8 -14 -29 -50 -47 -80 -18 -30 -61 -108 -96 -172 -35
-65 -82 -143 -105 -173 -28 -37 -61 -106 -101 -208 -109 -282 -162 -482 -175
-659 l-6 -87 47 -75 c26 -42 51 -78 56 -81 31 -19 361 106 420 159 14 13 97
77 185 143 202 152 302 239 491 428 132 131 233 225 392 361 23 20 42 40 42
43 0 4 -26 4 -57 -1 -121 -18 -384 9 -429 44 -37 30 -130 179 -137 219 -3 19
-13 71 -22 116 -15 69 -16 89 -5 127 7 24 22 55 33 67 l21 22 31 -36 c25 -29
43 -39 84 -47 29 -5 57 -13 63 -16 6 -4 43 -10 82 -15 279 -30 291 -31 496
-19 113 7 275 13 360 15 186 3 242 9 361 41 110 29 129 30 163 3 35 -27 34
-75 -1 -147 -56 -112 -171 -208 -272 -228 -46 -9 -175 -129 -167 -157 3 -12
-11 -36 -42 -71 -112 -127 -318 -393 -379 -490 -14 -21 -51 -71 -82 -110 -31
-40 -98 -141 -149 -226 -51 -85 -120 -193 -154 -240 -34 -47 -67 -105 -75
-129 -7 -24 -22 -50 -32 -58 -11 -7 -29 -30 -42 -50 -12 -21 -27 -42 -34 -48
-14 -12 -80 -139 -91 -175 -4 -14 -18 -42 -31 -63 -14 -22 -23 -41 -20 -43 2
-2 1116 -3 2475 -2 l2472 3 -26 39 c-32 47 -107 227 -129 311 -41 155 -32 500
19 719 14 61 24 111 22 113 -7 8 -156 -159 -181 -203 -16 -27 -63 -86 -104
-131 -42 -45 -94 -101 -116 -125 -70 -76 -268 -243 -326 -276 -31 -18 -79 -36
-106 -41 -63 -12 -169 2 -215 28 -18 11 -58 27 -88 35 -91 26 -158 81 -207
167 -60 105 -76 187 -77 384 -1 88 3 183 7 210 l8 50 -37 -55 c-20 -30 -58
-80 -84 -110 -53 -62 -205 -267 -237 -320 -32 -52 -210 -220 -273 -257 -49
-30 -63 -33 -130 -33 -51 0 -88 6 -116 19 -90 41 -196 207 -215 336 -11 75 -4
262 11 314 5 17 5 29 0 26 -13 -8 -285 -357 -300 -385 -7 -14 -35 -51 -62 -83
-26 -32 -48 -61 -48 -65 0 -4 -56 -65 -124 -135 -142 -146 -143 -146 -240 -92
-35 19 -73 35 -86 35 -15 0 -40 17 -69 48 -91 94 -146 298 -122 455 24 165
182 522 288 655 32 39 80 111 106 160 26 48 75 116 108 152 33 36 96 110 139
165 103 130 116 145 129 145 5 0 57 42 115 94 120 106 191 152 291 185 82 28
190 32 303 12 69 -12 78 -17 147 -78 102 -89 144 -166 152 -280 l6 -81 -55
-55 c-61 -62 -123 -97 -168 -97 -36 0 -39 18 -10 65 29 46 61 143 50 150 -15
9 -220 -50 -220 -64 0 -4 -15 -15 -32 -25 -114 -66 -563 -517 -601 -603 -7
-15 -32 -55 -57 -88 -72 -97 -144 -222 -247 -427 -47 -94 -52 -118 -26 -118
25 0 180 108 222 155 20 21 62 64 94 94 32 30 90 94 129 142 38 48 76 90 83
93 12 4 232 262 300 351 67 88 169 185 205 196 47 14 126 -1 188 -36 25 -14
48 -25 53 -25 18 0 98 -56 107 -75 11 -25 -19 -89 -99 -207 -97 -143 -137
-225 -189 -383 -63 -192 -69 -232 -42 -264 l19 -25 36 30 c96 79 358 326 407
383 30 35 70 78 89 95 125 115 156 153 175 212 20 63 161 437 195 518 41 95
246 474 331 612 174 284 397 587 461 627 15 10 41 40 58 66 41 68 218 199 366
272 l62 30 130 -9 c125 -9 132 -11 195 -48 36 -22 80 -47 96 -56 17 -9 41 -36
54 -60 20 -37 23 -56 22 -138 -3 -163 -46 -301 -122 -397 -27 -33 -65 -90 -85
-126 -19 -36 -69 -110 -109 -164 -41 -54 -85 -114 -98 -133 -66 -97 -281 -326
-365 -390 -27 -20 -124 -107 -215 -191 -91 -85 -199 -178 -240 -208 -122 -89
-179 -140 -204 -184 -38 -65 -145 -372 -156 -446 -5 -36 -14 -90 -20 -120 -19
-100 -6 -284 21 -302 38 -26 170 27 324 131 121 81 337 255 398 318 32 34 97
95 145 135 138 117 152 139 217 333 82 241 186 470 367 804 107 197 120 218
309 490 164 236 323 442 419 544 107 112 267 253 341 297 74 46 194 79 283 79
l68 0 67 -66 c39 -39 94 -80 136 -102 39 -20 70 -41 70 -47 1 -5 9 -31 19 -58
24 -60 18 -184 -13 -271 -46 -131 -294 -467 -505 -686 -56 -58 -143 -152 -193
-210 -90 -104 -352 -361 -468 -459 -33 -28 -89 -76 -125 -106 -36 -31 -98 -83
-137 -116 -40 -33 -73 -68 -73 -78 0 -9 -19 -33 -43 -52 -23 -20 -54 -58 -69
-85 -27 -50 -108 -275 -108 -301 0 -7 -9 -33 -21 -56 -40 -81 -126 -333 -127
-373 -1 -23 -11 -91 -23 -150 -16 -81 -21 -149 -22 -264 0 -141 2 -163 27
-244 l27 -88 44 4 c87 10 190 96 494 413 40 42 75 74 78 71 3 -3 -7 -36 -22
-73 -20 -48 -28 -85 -27 -127 0 -64 -34 -158 -104 -282 l-36 -64 671 0 671 0
0 -240 0 -240 -987 0 -988 0 114 -61 c532 -283 933 -688 1200 -1209 160 -311
254 -638 292 -1009 15 -146 6 -510 -16 -651 -91 -592 -347 -1113 -752 -1531
-379 -391 -820 -645 -1344 -774 -251 -62 -331 -70 -664 -70 -265 1 -315 3
-429 23 -533 93 -983 302 -1375 638 -568 488 -910 1167 -967 1922 l-7 92 -834
0 -834 0 -26 -30 c-35 -42 -74 -60 -128 -60 -54 0 -93 18 -128 60 l-26 30
-679 0 -679 0 -6 -142 c-27 -625 -311 -1277 -759 -1743 -447 -465 -980 -741
-1628 -842 -160 -25 -604 -25 -767 -1 -483 73 -908 248 -1280 526 -609 456
-986 1097 -1100 1867 -27 184 -24 572 6 764 88 568 320 1056 705 1485 219 243
552 487 858 630 62 29 129 59 148 68 33 16 -41 17 -1062 17 l-1098 1 0 240 0
240 3957 2 3957 3 12 70 c15 87 111 329 169 427 25 40 45 77 45 81 0 5 9 22
20 37 11 16 27 48 35 71 9 23 41 81 73 128 31 47 65 99 75 115 l18 28 -28 -22
c-15 -12 -55 -52 -88 -88 -143 -157 -411 -410 -475 -446 -36 -21 -78 -48 -95
-60 -16 -12 -65 -34 -107 -49 -67 -24 -86 -26 -150 -21 -114 11 -320 118 -466
244 -70 60 -162 205 -162 254 0 20 -7 51 -16 67 -10 20 -14 52 -13 92 1 34 -1
100 -5 147 -6 67 -4 94 8 129 9 24 16 74 16 112 0 43 7 86 19 116 10 26 21 61
25 77 6 26 5 28 -9 16 -8 -7 -76 -87 -151 -179 -217 -267 -258 -317 -279 -349
-56 -84 -106 -139 -225 -246 -71 -65 -130 -123 -130 -129 0 -6 -29 -39 -65
-73 -54 -52 -73 -64 -111 -70 -60 -9 -109 0 -142 26 -15 12 -48 37 -74 56 -58
43 -114 117 -135 180 -21 63 -13 225 16 310 11 34 57 136 101 228 44 91 80
174 80 185 0 10 7 24 15 31 9 7 31 46 49 86 19 40 47 92 64 116 136 198 352
650 352 737 0 10 -9 30 -20 44 -35 45 -16 92 28 68 10 -5 52 -14 95 -20 106
-15 138 -30 217 -107 58 -55 69 -72 74 -107 3 -23 8 -60 12 -81 11 -62 -14
-172 -61 -271 -24 -49 -49 -107 -56 -128 -8 -21 -28 -49 -47 -64 -55 -41 -72
-79 -72 -155 0 -61 -3 -69 -24 -84 -24 -15 -153 -199 -208 -294 -61 -107 -98
-180 -90 -180 13 0 94 54 214 143 118 88 229 185 515 450 181 169 191 181 242
329 35 100 143 310 210 408 133 194 270 381 312 425 26 28 62 75 80 105 65
108 249 312 352 388 39 30 101 82 137 117 36 34 99 86 140 114 41 28 104 74
140 101 81 62 155 101 337 179 177 75 268 92 453 85 88 -4 101 -7 172 -44z
m-2857 -71 c72 -68 147 -180 165 -249 7 -26 10 -69 6 -103 l-6 -57 52 26 c86
43 249 64 372 48 l46 -7 -38 -41 c-21 -22 -80 -97 -132 -166 -159 -212 -304
-340 -424 -375 -64 -19 -178 -19 -242 0 -110 32 -285 189 -424 380 -40 55 -95
123 -122 151 l-49 51 47 7 c147 20 307 -7 425 -71 4 -2 2 17 -3 42 -18 84 13
170 104 293 37 49 130 132 149 132 4 0 38 -28 74 -61z m-4385 -85 c165 -31
325 -76 405 -114 122 -59 321 -241 411 -376 98 -147 134 -295 134 -549 0 -142
-20 -276 -56 -377 -43 -120 -140 -298 -208 -383 -36 -44 -79 -105 -97 -135
-77 -132 -144 -214 -411 -507 -165 -180 -417 -395 -605 -516 -37 -25 -86 -59
-108 -77 -22 -18 -78 -52 -125 -76 -47 -24 -112 -60 -145 -79 -106 -62 -458
-197 -596 -230 -41 -10 -99 -26 -129 -36 -72 -25 -222 -41 -385 -42 -122 -1
-134 1 -187 26 -70 33 -131 94 -147 146 -6 21 -11 66 -11 99 0 71 20 102 83
127 l37 15 0 -82 c0 -46 4 -89 9 -97 7 -11 28 -13 98 -8 144 9 483 99 471 125
-2 4 -16 32 -32 62 l-29 55 6 155 c6 174 20 233 115 465 27 66 95 231 150 367
56 136 125 289 153 340 29 51 76 143 104 204 29 62 80 158 113 215 33 57 81
155 107 216 25 62 86 197 136 300 50 104 102 212 115 241 l23 52 -32 0 c-73 0
-202 -22 -318 -55 -68 -19 -181 -50 -250 -70 -188 -52 -360 -126 -445 -191
-234 -179 -267 -254 -131 -297 60 -19 107 -51 107 -72 0 -8 -10 -20 -22 -26
-13 -7 -28 -18 -35 -25 -7 -7 -31 -15 -53 -19 -36 -6 -48 -2 -111 35 -73 45
-156 128 -163 164 -3 11 -7 33 -10 48 -3 14 -17 40 -30 55 -53 62 -59 192 -16
327 18 58 33 81 83 134 125 130 343 252 526 293 53 12 110 29 126 39 96 56
387 112 805 155 185 19 398 11 570 -21z m13415 -608 c90 -42 135 -114 135
-219 0 -207 -255 -314 -404 -169 -51 48 -76 104 -76 170 -1 180 181 295 345
218z m-11620 -472 c33 -8 71 -23 85 -32 14 -9 68 -42 121 -72 76 -43 110 -70
158 -125 83 -94 98 -144 76 -246 -19 -95 -82 -217 -154 -298 -31 -35 -79 -93
-107 -130 -62 -81 -119 -133 -176 -162 -24 -12 -56 -37 -73 -55 -16 -18 -53
-48 -80 -66 -28 -18 -76 -53 -108 -78 -31 -25 -132 -83 -224 -130 l-168 -85
-8 -75 c-12 -108 -8 -239 9 -272 18 -36 49 -51 86 -44 50 10 253 112 294 147
49 43 121 102 189 154 121 94 279 242 437 410 l168 180 0 77 c0 61 7 96 36
180 46 132 77 188 182 321 143 183 277 273 507 344 144 44 230 12 376 -142
103 -108 169 -214 169 -272 0 -13 -12 -45 -27 -71 -14 -26 -46 -83 -71 -127
-24 -44 -55 -95 -69 -113 -44 -59 -127 -134 -170 -153 -23 -11 -55 -30 -70
-43 -36 -29 -69 -47 -76 -40 -3 3 3 25 13 48 22 51 45 155 65 291 8 55 23 125
33 155 30 87 36 130 18 130 -18 0 -155 -111 -176 -143 -8 -13 -36 -42 -61 -65
-26 -23 -72 -86 -104 -139 -51 -86 -59 -106 -67 -175 -12 -100 3 -161 81 -328
32 -69 66 -150 76 -180 9 -30 26 -71 37 -90 65 -113 106 -332 81 -429 -22 -87
-42 -119 -118 -188 -126 -114 -227 -165 -327 -165 -105 0 -200 39 -328 136
-178 133 -261 243 -330 434 -13 34 -26 61 -30 60 -3 -2 -40 -40 -82 -86 -177
-196 -359 -339 -488 -383 -80 -27 -239 -37 -296 -19 -53 17 -235 143 -306 211
-113 108 -150 284 -114 540 8 53 21 109 29 125 8 16 24 75 35 130 34 171 103
324 247 542 105 161 159 234 221 299 110 115 321 287 386 313 36 14 128 11
193 -6z m11041 -73 c5 -5 47 -14 93 -20 104 -14 164 -45 238 -124 44 -49 53
-64 48 -84 -3 -14 -1 -31 6 -39 9 -10 10 -45 5 -125 -6 -97 -11 -116 -36 -157
-16 -26 -42 -82 -59 -124 -22 -55 -42 -88 -70 -113 -55 -50 -74 -95 -66 -155
6 -47 5 -51 -29 -82 -40 -37 -163 -218 -221 -323 -21 -38 -49 -90 -63 -114
l-25 -45 39 23 c77 45 268 188 363 270 114 100 438 398 445 410 3 5 56 55 118
112 127 118 128 120 -30 -121 -52 -80 -95 -152 -95 -160 0 -8 -21 -37 -47 -65
-25 -27 -84 -97 -130 -155 -46 -58 -122 -150 -170 -205 -48 -55 -95 -116 -105
-135 -35 -67 -100 -139 -255 -280 -51 -46 -102 -98 -112 -115 -10 -16 -34 -41
-53 -55 -19 -14 -35 -31 -35 -38 0 -19 -79 -52 -127 -52 -58 0 -84 12 -163 75
-127 101 -165 174 -163 310 1 128 22 196 123 403 50 100 90 191 90 202 0 10 5
22 11 26 6 4 27 40 45 81 19 41 47 94 63 116 88 128 277 492 325 625 31 88 33
134 5 179 -17 27 -19 36 -9 48 14 17 32 19 46 6z m-10084 -10861 c64 -146 117
-268 117 -272 1 -5 -21 -8 -48 -8 l-49 0 -27 65 -28 66 -130 -3 -129 -3 -26
-62 -26 -63 -49 0 c-35 0 -48 4 -44 13 14 34 220 504 228 520 8 14 20 17 52
15 l42 -3 117 -265z m1797 235 c28 -14 51 -28 51 -31 0 -3 -10 -20 -22 -37
-12 -18 -22 -33 -23 -35 -1 -1 -23 10 -49 24 -89 50 -186 31 -186 -37 0 -38
21 -56 88 -74 147 -41 195 -73 207 -138 24 -124 -76 -209 -225 -194 -55 6
-128 35 -174 70 -18 13 -18 15 11 47 l29 33 43 -29 c33 -22 58 -29 107 -32 82
-5 114 12 114 63 0 43 -19 56 -125 85 -98 26 -138 50 -159 94 -28 60 -14 138
32 179 60 54 189 59 281 12z m5004 19 c60 -20 129 -82 158 -141 32 -68 32
-169 0 -241 -105 -234 -465 -206 -532 41 -14 54 -7 153 16 197 34 68 106 130
175 151 43 13 135 10 183 -7z m811 -5 c112 -41 186 -166 172 -286 -19 -159
-145 -262 -305 -251 -147 11 -248 112 -258 258 -15 210 189 355 391 279z
m-10184 -259 l0 -270 -50 0 -50 0 0 270 0 270 50 0 50 0 0 -270z m515 88 l140
-182 3 182 2 182 50 0 50 0 0 -270 0 -270 -42 0 -43 0 -147 192 -148 191 0
-191 0 -192 -50 0 -50 0 0 270 0 270 48 0 47 0 140 -182z m874 147 c119 -66
166 -186 126 -321 -19 -64 -60 -113 -126 -149 -52 -29 -60 -30 -201 -33 l-148
-4 0 272 0 272 148 -4 c141 -3 149 -4 201 -33z m501 -235 l0 -270 -50 0 -50 0
0 270 0 270 50 0 50 0 0 -270z m1271 84 l144 -186 3 186 2 186 45 0 45 0 0
-271 0 -270 -42 3 c-42 3 -43 4 -188 191 l-145 188 -3 -191 -2 -190 -45 0 -45
0 0 270 0 270 44 0 44 0 143 -186z m1919 141 l0 -45 -85 0 -85 0 0 -225 0
-225 -50 0 -50 0 0 225 0 224 -82 3 -83 3 -3 43 -3 42 220 0 221 0 0 -45z
m601 22 c51 -26 89 -89 89 -147 0 -57 -38 -122 -87 -146 l-43 -22 54 -74 c29
-41 61 -86 71 -101 l17 -27 -54 0 -55 0 -67 95 -68 95 -59 0 -59 0 0 -95 0
-95 -50 0 -50 0 0 270 0 270 158 0 c146 0 162 -2 203 -23z m749 -17 l0 -40
-155 0 -155 0 0 -70 0 -69 138 -3 137 -3 3 -42 3 -43 -141 0 -141 0 3 -72 3
-73 153 -3 152 -3 0 -39 0 -40 -200 0 -200 0 0 270 0 270 200 0 200 0 0 -40z
m660 0 l0 -39 -152 -3 -153 -3 -3 -67 -3 -67 138 -3 138 -3 3 -42 3 -43 -141
0 -141 0 3 -72 3 -73 158 -3 157 -3 0 -39 0 -40 -205 0 -205 0 0 270 0 270
200 0 200 0 0 -40z m660 -5 l0 -45 -85 0 -85 0 0 -225 0 -225 -50 0 -50 0 0
225 0 225 -85 0 -85 0 0 45 0 45 220 0 220 0 0 -45z m1020 5 l0 -39 -152 -3
-153 -3 -3 -72 -3 -72 138 -3 138 -3 3 -42 3 -43 -140 0 -141 0 0 -110 0 -110
-45 0 -45 0 0 270 0 270 200 0 200 0 0 -40z m2163 20 c182 -68 232 -307 92
-443 -62 -60 -123 -77 -280 -77 l-135 0 0 270 0 270 135 0 c110 0 144 -4 188
-20z"/>
<path d="M7550 19761 l0 -71 94 0 c110 0 139 15 139 69 0 54 -21 66 -133 69
l-100 4 0 -71z"/>
<path d="M7550 19530 l0 -70 109 0 c127 0 154 12 154 70 0 58 -27 70 -154 70
l-109 0 0 -70z"/>
<path d="M8260 19740 l0 -90 96 0 c92 0 97 1 125 29 31 31 35 53 19 96 -14 37
-65 55 -160 55 l-80 0 0 -90z"/>
<path d="M13110 19730 l0 -100 69 0 c79 0 110 9 140 41 23 25 28 77 10 111
-16 30 -71 48 -149 48 l-70 0 0 -100z"/>
<path d="M14535 19826 c-79 -29 -135 -132 -118 -218 28 -149 194 -208 307
-109 61 54 75 183 26 254 -47 68 -140 100 -215 73z"/>
<path d="M15234 19817 c-3 -8 -4 -52 -2 -98 l3 -84 55 -3 c113 -7 170 25 170
93 0 49 -15 74 -55 91 -45 18 -164 19 -171 1z"/>
<path d="M18278 19830 c-78 -23 -131 -99 -131 -186 0 -163 182 -255 300 -151
45 40 63 82 63 149 0 94 -50 163 -136 187 -44 12 -58 13 -96 1z"/>
<path d="M22410 19741 l0 -91 99 0 c84 0 102 3 125 21 37 29 37 95 0 130 -23
21 -36 24 -125 27 l-99 4 0 -91z"/>
<path d="M22180 16650 c-114 -79 -551 -562 -690 -761 -30 -44 -81 -115 -113
-158 -61 -83 -187 -306 -244 -431 l-34 -75 96 95 c115 113 342 357 514 554 68
77 149 170 181 206 184 209 308 373 355 472 35 73 40 93 29 122 -9 25 -34 18
-94 -24z"/>
<path d="M20595 16526 c-73 -49 -276 -262 -312 -327 -18 -31 -56 -84 -85 -118
-163 -190 -351 -471 -459 -689 -45 -90 -79 -165 -77 -167 3 -3 63 55 135 128
409 416 782 880 853 1060 33 82 37 140 10 145 -8 1 -37 -13 -65 -32z"/>
<path d="M11400 12737 c14 -6 69 -30 122 -54 188 -83 412 -219 588 -359 135
-107 375 -354 481 -496 316 -422 506 -915 554 -1435 l7 -73 707 0 c593 1 710
3 731 15 14 8 48 14 75 14 28 0 61 -6 75 -14 21 -12 158 -14 886 -15 l861 0
12 138 c55 615 299 1171 719 1637 205 227 489 445 767 590 61 31 112 59 114
61 2 2 -623 4 -1391 4 l-1395 0 -17 -72 c-31 -128 -32 -183 -5 -239 13 -27 28
-49 32 -49 15 0 141 86 171 116 15 16 37 46 47 66 11 21 21 38 22 38 2 0 0
-30 -5 -67 -18 -152 -62 -233 -150 -277 -59 -30 -96 -33 -138 -11 -49 25 -145
111 -184 163 -43 60 -76 174 -76 269 l0 63 -1817 -1 c-1353 0 -1812 -3 -1793
-12z"/>
<path d="M18605 12725 c-684 -184 -1260 -636 -1609 -1261 -173 -311 -287 -695
-313 -1053 l-6 -91 130 0 129 0 13 123 c70 702 446 1327 1032 1717 506 337
1132 463 1728 349 57 -11 157 -36 223 -55 66 -19 123 -34 126 -34 9 0 -36 38
-129 109 -93 71 -227 141 -351 183 l-93 32 -395 3 c-391 3 -396 2 -485 -22z"/>
<path d="M10075 12728 c-138 -15 -217 -36 -313 -83 -173 -83 -333 -213 -446
-363 -50 -66 -55 -85 -14 -58 41 27 250 112 365 149 128 42 312 81 462 98 133
15 472 6 605 -15 481 -77 933 -306 1274 -644 198 -196 332 -383 457 -637 118
-238 186 -463 221 -724 l17 -131 128 0 129 0 0 33 c0 66 -42 314 -75 441 -137
535 -449 1021 -880 1371 -367 299 -844 502 -1315 560 -137 17 -480 19 -615 3z"/>
<path d="M20090 12653 c134 -113 244 -237 320 -361 26 -43 52 -66 132 -119
137 -90 235 -169 356 -287 358 -348 579 -769 673 -1276 26 -137 37 -492 20
-640 -87 -768 -535 -1437 -1206 -1802 -514 -280 -1118 -356 -1686 -213 -317
80 -649 247 -906 456 -483 393 -798 995 -849 1622 l-7 87 -130 0 -130 0 7
-100 c32 -468 213 -955 499 -1340 190 -257 454 -502 716 -664 528 -327 1134
-454 1745 -365 1071 155 1939 968 2165 2029 73 343 71 758 -5 1095 -111 495
-341 911 -704 1275 -264 265 -580 471 -910 593 -147 54 -152 55 -100 10z"/>
<path d="M9074 12394 c-644 -374 -1099 -1008 -1243 -1731 -136 -681 0 -1376
382 -1948 211 -317 513 -603 842 -798 310 -184 681 -308 1037 -346 143 -16
454 -13 598 4 382 47 795 200 1110 410 693 462 1113 1196 1165 2033 l6 102
-129 0 c-150 0 -142 6 -142 -110 0 -151 -55 -425 -125 -631 -45 -132 -165
-376 -245 -499 -317 -487 -820 -849 -1376 -989 -65 -17 -162 -38 -214 -47
-128 -21 -476 -30 -610 -15 -471 54 -897 234 -1252 530 -447 374 -735 897
-820 1486 -17 117 -17 493 0 610 83 582 368 1102 806 1474 74 63 84 76 114
148 42 102 110 223 178 313 30 40 53 74 51 76 -2 2 -62 -30 -133 -72z"/>
<path d="M18963 12404 c-112 -16 -249 -48 -324 -75 l-57 -21 30 -81 c17 -45
33 -90 35 -99 3 -10 8 -16 12 -14 3 2 7 -9 7 -26 1 -17 7 -34 13 -38 7 -4 12
-11 11 -16 0 -5 2 -18 6 -29 3 -11 7 -22 8 -25 13 -49 31 -88 37 -84 5 3 6 -2
3 -11 -4 -8 -2 -21 4 -28 6 -6 10 -16 10 -20 -1 -18 76 -223 86 -229 6 -4 8
-8 4 -8 -7 0 49 -166 82 -245 7 -16 14 -35 15 -40 3 -14 130 -362 146 -400 15
-36 16 -40 18 -60 1 -16 37 -20 79 -9 l22 6 0 784 0 784 -77 -1 c-43 -1 -119
-7 -170 -15z"/>
<path d="M19340 11636 l0 -785 43 -9 c23 -5 43 -8 44 -7 5 2 533 1459 533
1470 0 32 -401 114 -557 115 l-63 0 0 -784z"/>
<path d="M10166 12348 c-113 -9 -306 -47 -414 -79 -56 -17 -72 -26 -69 -38 7
-26 529 -1456 532 -1460 2 -2 25 0 50 3 l45 7 0 790 0 789 -22 -1 c-13 -1 -68
-6 -122 -11z"/>
<path d="M10440 11571 l0 -789 41 -7 c22 -4 44 -3 49 1 4 5 125 331 268 724
143 393 263 722 267 731 5 14 -13 22 -107 47 -160 44 -231 56 -455 77 l-63 6
0 -790z"/>
<path d="M18324 12211 c-141 -68 -296 -163 -363 -223 l-48 -43 55 -67 c30 -38
58 -68 63 -68 5 0 9 -5 9 -11 0 -9 134 -175 184 -226 11 -12 26 -28 31 -35 23
-31 87 -109 98 -120 7 -7 127 -150 267 -318 326 -390 287 -352 333 -333 20 8
37 20 37 27 0 18 -532 1476 -539 1476 -3 0 -60 -27 -127 -59z"/>
<path d="M20035 12118 c-27 -78 -50 -145 -51 -148 0 -3 -5 -16 -11 -30 -32
-73 -63 -162 -58 -170 3 -4 1 -10 -4 -12 -14 -5 -102 -258 -95 -271 4 -7 3 -9
-1 -4 -7 6 -250 -636 -258 -681 -1 -8 15 -25 35 -38 l36 -23 384 457 c211 252
389 465 397 475 12 15 12 29 1 90 -24 138 -109 355 -166 425 -16 19 -79 49
-144 68 -11 4 -27 -29 -65 -138z"/>
<path d="M9520 12188 c-80 -36 -251 -124 -305 -159 -69 -43 -79 -60 -109 -182
-15 -60 -16 -71 -3 -85 8 -10 213 -254 456 -544 242 -290 445 -530 451 -533 5
-3 27 3 49 15 l41 20 -20 53 c-11 28 -132 360 -269 737 -137 376 -253 685
-258 686 -4 2 -19 -2 -33 -8z"/>
<path d="M10922 11476 c-145 -398 -265 -731 -265 -740 -1 -10 14 -26 36 -38
37 -22 37 -22 56 -3 17 19 937 1115 975 1163 22 28 31 19 -139 134 -104 70
-364 208 -391 208 -5 0 -128 -326 -272 -724z"/>
<path d="M17689 11753 c-63 -65 -139 -152 -169 -193 -56 -76 -123 -181 -118
-185 41 -27 80 -45 90 -39 7 4 10 4 6 -1 -7 -8 38 -38 144 -98 24 -13 57 -33
75 -43 44 -26 303 -176 573 -332 124 -71 279 -161 345 -199 l120 -70 27 31
c15 17 28 34 28 38 0 5 -226 277 -501 605 -276 329 -503 599 -504 601 -1 1
-53 -51 -116 -115z"/>
<path d="M20679 11791 l-56 -66 -1 -155 c-1 -85 -7 -189 -12 -230 -12 -83 -52
-237 -75 -294 -13 -30 -13 -36 -2 -29 8 4 149 87 315 182 l302 175 -20 34
c-70 118 -247 326 -349 411 l-46 38 -56 -66z"/>
<path d="M11335 11200 c-275 -328 -500 -601 -500 -606 0 -6 12 -25 27 -42 l27
-32 678 391 c373 215 680 393 682 395 7 6 -108 170 -178 253 -75 89 -200 219
-221 230 -11 6 -134 -135 -515 -589z"/>
<path d="M8793 11687 c-136 -139 -300 -351 -291 -378 4 -11 450 -270 456 -265
2 2 -8 41 -22 86 -52 164 -73 363 -57 534 6 60 10 111 8 112 -2 2 -44 -38 -94
-89z"/>
<path d="M9070 11513 c0 -169 47 -359 129 -520 69 -135 62 -130 371 -308 l285
-165 32 37 32 37 -43 51 c-23 27 -210 250 -415 495 -206 245 -377 449 -382
455 -5 5 -9 -29 -9 -82z"/>
<path d="M20403 11461 c-7 -11 -41 -52 -76 -93 -51 -58 -204 -240 -306 -363
-9 -11 -76 -91 -149 -177 -72 -86 -132 -163 -132 -170 0 -7 11 -26 23 -42 l24
-29 204 118 c112 65 210 125 217 134 61 77 137 239 177 377 21 73 45 264 33
264 -2 0 -9 -9 -15 -19z"/>
<path d="M17271 11150 c-54 -114 -128 -319 -137 -380 -3 -19 -7 -51 -10 -70
l-6 -35 106 -18 c58 -10 111 -15 118 -11 6 4 8 3 5 -2 -3 -6 52 -20 131 -33
75 -12 371 -64 657 -115 l520 -93 18 40 c10 22 14 44 10 48 -13 13 -1342 779
-1351 779 -5 0 -32 -50 -61 -110z"/>
<path d="M21025 11152 c-94 -54 -267 -154 -385 -223 -118 -68 -217 -127 -219
-132 -13 -31 -173 -216 -249 -288 -50 -48 -83 -85 -74 -83 9 2 301 54 647 114
347 61 643 113 658 116 27 6 28 8 22 42 -23 132 -129 423 -182 501 -13 18 -23
38 -23 42 0 20 -33 5 -195 -89z"/>
<path d="M8375 11087 c-29 -61 -69 -157 -88 -212 -35 -101 -82 -274 -75 -279
1 -2 278 -51 613 -110 336 -59 624 -110 640 -113 l30 -5 -25 18 c-131 93 -269
238 -362 377 -43 65 -57 77 -140 126 -51 29 -193 111 -316 182 l-223 129 -54
-113z"/>
<path d="M11645 10812 c-368 -213 -675 -391 -682 -395 -9 -6 -8 -18 5 -53 14
-37 20 -44 37 -40 11 2 358 64 770 136 413 73 752 134 754 136 20 19 -80 327
-157 486 l-57 118 -670 -388z"/>
<path d="M19205 10718 c-196 -22 -369 -172 -425 -369 l-9 -29 169 0 c103 0
171 4 175 10 13 22 86 50 128 50 31 0 56 -8 81 -25 20 -14 47 -25 59 -25 39 0
184 39 267 70 l80 31 -19 38 c-11 20 -40 60 -65 88 -110 122 -271 181 -441
161z"/>
<path d="M10258 10644 c-123 -29 -243 -113 -308 -214 -18 -28 -31 -52 -29 -55
2 -2 40 -12 84 -24 96 -24 215 -38 215 -24 0 5 17 19 39 31 63 36 151 25 190
-22 11 -14 44 -16 207 -16 107 0 194 3 194 6 0 3 -14 33 -32 66 -105 197 -344
305 -560 252z"/>
<path d="M17085 10527 c-3 -6 -8 -56 -13 -109 l-8 -98 621 1 620 1 -575 102
c-316 56 -590 105 -608 109 -22 4 -34 3 -37 -6z"/>
<path d="M21290 10504 c-69 -14 -132 -25 -140 -25 -8 -1 -34 -5 -58 -10 -23
-5 -59 -12 -80 -15 -20 -3 -62 -10 -92 -15 -83 -15 -86 -16 -220 -39 -69 -11
-132 -24 -140 -27 -8 -3 -20 -5 -25 -5 -14 2 -614 -104 -619 -109 -2 -2 -6
-23 -10 -46 l-6 -42 52 -10 c104 -21 1476 -261 1490 -261 19 0 26 52 35 245 5
125 -6 311 -23 368 -6 21 -8 21 -164 -9z"/>
<path d="M8186 10453 c-16 -50 -25 -312 -16 -441 5 -75 10 -141 10 -147 1 -38
7 -37 782 100 421 74 768 135 772 135 3 0 6 22 6 49 0 47 -1 49 -32 55 -18 3
-355 62 -748 131 -393 69 -727 128 -742 131 -20 4 -28 1 -32 -13z"/>
<path d="M12145 10399 c-209 -37 -389 -70 -400 -72 -11 -2 170 -5 403 -6 l422
-1 0 38 c0 69 -11 112 -29 111 -9 -1 -187 -32 -396 -70z"/>
<path d="M19672 10204 c-51 -18 -137 -43 -191 -54 -81 -16 -105 -25 -129 -49
-41 -42 -99 -57 -156 -41 -24 7 -55 23 -67 36 -22 23 -26 24 -190 24 l-167 0
10 -37 c35 -130 144 -261 262 -317 120 -57 224 -69 345 -41 168 40 304 164
361 329 22 65 38 187 24 185 -5 0 -51 -16 -102 -35z"/>
<path d="M9860 10156 c0 -15 7 -62 16 -104 54 -264 304 -442 566 -404 204 30
371 179 423 377 27 103 43 95 -186 95 -199 0 -201 0 -231 -25 -68 -57 -153
-55 -222 5 -25 22 -44 30 -72 30 -22 0 -82 9 -134 21 -170 36 -160 35 -160 5z"/>
<path d="M11006 10110 c10 -10 1543 -285 1550 -277 6 5 24 185 24 240 l0 47
-792 0 c-534 0 -789 -3 -782 -10z"/>
<path d="M17067 10078 c2 -24 8 -74 14 -111 9 -54 14 -67 26 -63 8 3 26 6 39
6 14 0 22 4 19 10 -3 5 0 7 8 4 8 -3 196 27 418 66 222 39 469 82 549 96 80
14 150 27 155 29 6 2 -269 4 -610 4 l-621 1 3 -42z"/>
<path d="M17888 9910 c-422 -74 -770 -138 -773 -142 -10 -10 38 -191 81 -306
48 -128 124 -282 141 -282 7 0 13 5 13 11 0 5 4 8 9 5 5 -4 11 -3 13 1 1 5 24
19 50 32 26 14 44 30 41 35 -4 6 -3 8 2 4 9 -9 105 41 105 54 0 5 4 7 9 4 5
-3 20 3 34 14 14 11 28 20 31 20 4 0 118 64 254 143 136 79 367 213 515 297
284 164 282 162 254 220 l-12 26 -767 -136z"/>
<path d="M19867 9999 c-9 -24 -16 -44 -14 -45 5 -5 1357 -784 1360 -784 2 0
27 48 55 108 59 125 126 315 142 402 6 34 13 67 16 74 3 7 -1 13 -8 14 -7 1
-74 13 -148 27 -74 14 -148 27 -165 29 -16 3 -68 12 -114 21 -46 9 -89 14 -97
11 -7 -3 -14 -1 -16 3 -2 5 -445 87 -683 126 -33 5 -258 45 -286 51 -23 4 -28
0 -42 -37z"/>
<path d="M8980 9842 c-421 -74 -767 -136 -768 -138 -7 -5 40 -178 75 -279 19
-55 59 -151 88 -213 l54 -112 58 34 c32 18 337 194 678 391 341 197 622 359
624 361 6 5 -25 88 -35 90 -5 1 -353 -59 -774 -134z"/>
<path d="M10968 9935 c-13 -34 -14 -46 -5 -52 7 -4 314 -182 682 -395 l670
-388 56 118 c77 159 178 468 158 485 -2 2 -344 64 -759 136 -415 73 -762 135
-770 137 -11 3 -21 -10 -32 -41z"/>
<path d="M18125 9483 c-347 -200 -654 -377 -683 -394 l-53 -30 60 -87 c85
-123 206 -267 285 -336 l68 -59 22 24 c41 45 236 279 236 284 0 2 10 15 23 28
26 28 73 83 102 118 11 13 49 58 83 99 35 41 71 84 81 95 9 11 53 64 99 117
45 54 82 102 82 108 0 5 4 10 8 10 7 0 224 251 259 301 11 14 8 22 -15 51
l-27 35 -630 -364z"/>
<path d="M19756 9811 c-16 -16 -27 -34 -25 -40 2 -5 220 -267 484 -581 264
-315 490 -584 502 -599 l22 -26 46 45 c148 142 371 429 349 450 -11 10 -679
397 -754 436 -30 16 -57 32 -60 35 -3 3 -25 17 -50 30 -25 14 -56 32 -70 40
-31 20 -411 239 -414 239 -1 0 -15 -13 -30 -29z"/>
<path d="M9178 9388 c-373 -215 -678 -396 -678 -400 0 -35 199 -285 327 -411
l79 -78 460 548 c252 301 480 572 506 603 l46 56 -31 37 -32 37 -677 -392z"/>
<path d="M10857 9745 c-18 -21 -26 -39 -21 -47 7 -11 896 -1073 977 -1167 l29
-34 109 111 c122 127 313 373 298 386 -6 5 -1361 786 -1362 785 -1 0 -15 -16
-30 -34z"/>
<path d="M18493 9193 c-229 -274 -457 -545 -505 -603 l-89 -104 23 -18 c112
-88 352 -229 456 -268 26 -10 54 -20 62 -24 13 -5 21 9 40 66 14 40 25 78 25
83 0 6 3 12 6 15 4 3 25 59 49 125 23 66 46 129 51 140 17 38 379 1038 376
1040 -1 1 -16 11 -34 23 -17 12 -34 22 -37 22 -3 0 -193 -224 -423 -497z"/>
<path d="M19588 9668 c-21 -12 -38 -25 -38 -29 0 -3 115 -323 256 -710 141
-387 261 -716 266 -731 6 -16 15 -28 21 -28 22 0 251 116 346 175 51 32 108
72 126 89 18 17 41 36 51 42 18 10 -42 86 -551 689 -56 66 -137 163 -180 215
-44 52 -82 97 -85 100 -5 5 -148 175 -165 197 -8 10 -18 8 -47 -9z"/>
<path d="M9777 9343 c-634 -755 -767 -915 -767 -923 0 -10 107 -88 202 -148
86 -54 300 -161 328 -165 19 -2 43 58 271 683 137 377 258 709 269 737 l20 53
-40 20 c-21 11 -41 20 -44 20 -3 0 -110 -125 -239 -277z"/>
<path d="M10682 9598 c-18 -11 -31 -26 -29 -32 59 -176 534 -1466 540 -1466
17 0 224 102 306 152 104 62 241 160 238 170 -6 18 -1003 1198 -1012 1197 -5
0 -25 -10 -43 -21z"/>
<path d="M18845 8864 c-148 -406 -264 -739 -259 -743 37 -31 333 -91 487 -98
l127 -6 0 781 0 780 -31 11 c-18 6 -37 11 -44 11 -7 0 -128 -317 -280 -736z"/>
<path d="M19380 9590 l-45 -5 -3 -787 -2 -788 35 0 c140 0 535 73 535 99 0 3
12 7 26 7 14 1 27 4 30 6 4 4 -24 85 -57 163 -7 17 -13 33 -14 38 -2 4 -3 8
-5 10 -1 1 -3 10 -5 21 -2 10 -13 42 -24 72 -12 30 -30 80 -42 112 -11 31 -27
73 -36 92 -8 19 -16 42 -18 50 -2 8 -9 29 -16 45 -6 17 -13 37 -15 46 -2 9
-13 38 -25 65 -11 27 -22 56 -24 64 -3 14 -57 165 -72 200 -3 8 -7 20 -9 25
-1 6 -40 114 -86 240 l-83 230 -45 -5z"/>
<path d="M9946 8794 c-148 -404 -266 -738 -263 -741 3 -3 62 -20 130 -38 120
-32 275 -57 425 -70 l72 -6 0 789 0 790 -31 6 c-17 3 -39 6 -48 6 -14 0 -75
-159 -285 -736z"/>
<path d="M10463 9523 l-23 -4 0 -790 0 -790 63 6 c142 13 176 17 257 31 69 12
311 72 310 78 0 0 -121 332 -269 736 -252 692 -269 735 -292 736 -13 1 -34 0
-46 -3z"/>
<path d="M9222 16513 c-27 -4 -32 -8 -26 -21 26 -60 9 -178 -36 -248 -16 -25
-47 -89 -71 -142 -68 -157 -191 -398 -279 -548 -46 -76 -98 -179 -117 -229
-19 -49 -43 -103 -53 -121 -11 -17 -69 -123 -128 -235 -60 -112 -155 -287
-212 -389 -57 -102 -134 -255 -171 -340 -37 -86 -83 -189 -103 -229 -21 -40
-35 -75 -32 -78 3 -3 58 23 123 57 141 73 333 216 493 366 63 59 148 131 187
161 40 29 85 70 100 90 16 20 78 90 140 157 135 147 156 172 331 402 107 142
158 221 233 360 158 296 256 563 266 727 6 85 5 89 -21 116 -34 35 -101 69
-174 88 -31 8 -75 19 -97 24 -97 25 -280 42 -353 32z"/>
<path d="M11092 15435 c-78 -44 -289 -252 -354 -347 -32 -49 -62 -98 -67 -111
-5 -13 -23 -44 -41 -70 -34 -51 -143 -287 -135 -295 9 -9 243 175 334 263 52
49 110 115 129 145 19 30 49 73 67 95 57 71 127 223 128 277 1 65 -9 72 -61
43z"/>
<path d="M11540 14578 c-41 -61 -104 -145 -139 -186 l-64 -73 36 -37 c19 -20
41 -49 48 -63 21 -40 70 -91 117 -122 24 -15 60 -43 80 -61 65 -59 192 -121
289 -141 26 -5 37 -1 63 22 l32 29 -17 54 c-10 30 -25 73 -32 95 -18 50 -90
166 -114 183 -9 6 -21 27 -24 45 -10 45 -33 87 -66 122 -15 17 -51 78 -79 138
-28 59 -52 107 -53 107 -1 0 -36 -51 -77 -112z"/>
<path d="M11802 4963 c-23 -54 -42 -101 -42 -105 0 -5 41 -8 91 -8 83 0 91 2
85 18 -22 58 -82 192 -87 192 -3 0 -25 -44 -47 -97z"/>
<path d="M18625 5081 c-114 -70 -128 -238 -26 -324 57 -48 164 -50 225 -4 103
79 92 261 -19 324 -51 29 -137 31 -180 4z"/>
<path d="M19435 5086 c-123 -55 -141 -247 -30 -332 30 -22 50 -29 99 -32 75
-4 118 16 161 77 26 37 30 51 30 110 0 57 -4 74 -28 109 -48 73 -152 103 -232
68z"/>
<path d="M10578 5094 c-5 -4 -8 -88 -8 -186 l0 -178 88 0 c71 0 94 4 126 23
113 64 113 247 1 312 -31 19 -63 27 -121 31 -44 4 -82 3 -86 -2z"/>
<path d="M14860 5005 l0 -95 80 0 c123 0 170 27 170 98 0 64 -54 91 -182 92
l-68 0 0 -95z"/>
<path d="M20150 4914 l0 -186 94 4 c77 2 100 7 123 24 132 98 92 299 -65 333
-29 6 -75 11 -102 11 l-50 0 0 -186z"/>
</g>
</svg>
